<svg width="21" height="21" viewBox="0 0 21 21" fill="none" xmlns="http://www.w3.org/2000/svg">
<path fill-rule="evenodd" clip-rule="evenodd" d="M10.6642 7.30442L17.6285 5.28516L15.8951 12.3261L13.7326 10.2501L10.2445 13.8837C10.126 14.007 9.96243 14.0767 9.79144 14.0767C9.62045 14.0767 9.45685 14.007 9.33843 13.8837L6.77719 11.2157L3.01024 15.1396C2.77006 15.3898 2.37253 15.3979 2.12234 15.1577C1.87215 14.9175 1.86404 14.52 2.10422 14.2698L6.32418 9.87403C6.4426 9.75067 6.60619 9.68094 6.77719 9.68094C6.94818 9.68094 7.11178 9.75067 7.2302 9.87403L9.79144 12.542L12.8266 9.38036L10.6642 7.30442Z" fill="#337D4C"/>
</svg>
